<svg width="31" height="31" viewBox="0 0 31 31" fill="none" xmlns="http://www.w3.org/2000/svg">
<g filter="url(#filter0_d_64_174)">
<path d="M6.12289 11.0826C5.51799 11.0263 4.97621 11.4718 4.98062 12.0793C4.99424 13.9583 5.48924 15.8092 6.42668 17.4518C7.5465 19.414 9.24334 20.9837 11.2866 21.9478C13.3298 22.9118 15.6203 23.2233 17.8468 22.84C20.0732 22.4566 22.1277 21.397 23.7309 19.8052C25.334 18.2134 26.4082 16.1665 26.8073 13.9428C27.2064 11.7191 26.9112 9.42643 25.9617 7.37641C25.0122 5.32639 23.4545 3.61846 21.5003 2.48474C19.8644 1.53567 18.0171 1.02755 16.1382 1.00059C15.5307 0.991879 15.0814 1.53048 15.1334 2.13576C15.1854 2.74105 15.7195 3.18237 16.3265 3.20627C17.7536 3.26246 19.1515 3.66549 20.3963 4.38769C21.9597 5.29466 23.2058 6.66101 23.9654 8.30102C24.725 9.94104 24.9612 11.7752 24.6419 13.5541C24.3226 15.3331 23.4633 16.9706 22.1808 18.244C20.8982 19.5175 19.2547 20.3652 17.4735 20.6719C15.6923 20.9785 13.8599 20.7293 12.2253 19.9581C10.5907 19.1869 9.23327 17.9311 8.33741 16.3613C7.62407 15.1114 7.23096 13.7107 7.18491 12.2833C7.16532 11.6761 6.72779 11.1388 6.12289 11.0826Z" fill="white"/>
<path d="M12.2172 3.36458C12.2172 4.02602 11.681 4.56221 11.0195 4.56221C10.3581 4.56221 9.82189 4.02602 9.82189 3.36458C9.82189 2.70315 10.3581 2.16695 11.0195 2.16695C11.681 2.16695 12.2172 2.70315 12.2172 3.36458Z" fill="white"/>
<path d="M8.60192 7.05892C8.60192 7.72035 8.06572 8.25655 7.40429 8.25655C6.74285 8.25655 6.20666 7.72035 6.20666 7.05892C6.20666 6.39748 6.74285 5.86129 7.40429 5.86129C8.06572 5.86129 8.60192 6.39748 8.60192 7.05892Z" fill="white"/>
<path d="M16.1158 5.0483C15.5756 5.0483 15.1373 5.48629 15.1373 6.02681V13.0717H20.0941C20.6559 13.0717 21.1114 12.6167 21.1114 12.0546C21.1114 11.4926 20.6559 11.0371 20.0941 11.0371H17.0946V6.02681C17.0946 5.48629 16.6564 5.0483 16.1158 5.0483Z" fill="white"/>
</g>
<defs>
<filter id="filter0_d_64_174" x="-0.0195312" y="0" width="32" height="32" filterUnits="userSpaceOnUse" color-interpolation-filters="sRGB">
<feFlood flood-opacity="0" result="BackgroundImageFix"/>
<feColorMatrix in="SourceAlpha" type="matrix" values="0 0 0 0 0 0 0 0 0 0 0 0 0 0 0 0 0 0 127 0" result="hardAlpha"/>
<feOffset dy="4"/>
<feGaussianBlur stdDeviation="2"/>
<feComposite in2="hardAlpha" operator="out"/>
<feColorMatrix type="matrix" values="0 0 0 0 0 0 0 0 0 0 0 0 0 0 0 0 0 0 0.25 0"/>
<feBlend mode="normal" in2="BackgroundImageFix" result="effect1_dropShadow_64_174"/>
<feBlend mode="normal" in="SourceGraphic" in2="effect1_dropShadow_64_174" result="shape"/>
</filter>
</defs>
</svg>
